<?xml version="1.0" encoding="iso-8859-1"?>
<!-- Generator: Adobe Illustrator 19.0.0, SVG Export Plug-In . SVG Version: 6.00 Build 0)  -->
<svg version="1.1" id="Layer_1" xmlns="http://www.w3.org/2000/svg" xmlns:xlink="http://www.w3.org/1999/xlink" x="0px" y="0px"
	 viewBox="0 0 512 512" style="enable-background:new 0 0 512 512;" xml:space="preserve">
<g>
	<g>
		<path d="M323.983,99.2c11.2-19.2,19.2-44.8,19.2-83.2c0-4.8-1.6-9.6-4.8-12.8c-3.2-3.2-8-3.2-12.8-3.2
			c-20.8,3.2-49.6,16-68.8,43.2c-17.6-22.4-44.8-43.2-70.4-43.2c-9.6,0-16,6.4-16,16c0,38.4,8,65.6,20.8,83.2
			c-83.2,14.4-140.8,76.8-140.8,152c0,62.4,40,121.6,107.2,160c56,33.6,76.8,57.6,75.2,83.2c0,8,4.8,16,14.4,17.6c1.6,0,3.2,0,4.8,0
			c12.8,0,25.6-6.4,32-20.8c0-1.6,1.6-4.8,1.6-8c3.2-12.8,9.6-36.8,46.4-56c83.2-41.6,129.6-104,129.6-176
			C463.183,174.4,407.183,115.2,323.983,99.2z M274.383,81.6c8-25.6,24-38.4,36.8-43.2c-4.8,44.8-25.6,60.8-41.6,68.8
			C269.583,97.6,272.783,88,274.383,81.6z M242.383,76.8c-1.6,8-3.2,17.6-4.8,27.2c-12.8-8-30.4-27.2-33.6-65.6
			C216.783,44.8,232.783,60.8,242.383,76.8z M319.183,400c-38.4,19.2-52.8,44.8-59.2,64c-14.4-30.4-48-56-84.8-78.4
			c-59.2-33.6-91.2-81.6-91.2-132.8c0-64,49.6-113.6,123.2-123.2c3.2,0,6.4-1.6,8-3.2c11.2,8,22.4,12.8,30.4,14.4
			c1.6,1.6,4.8,3.2,8,3.2c0,0,22.4-1.6,46.4-17.6c1.6,1.6,3.2,1.6,6.4,3.2c73.6,9.6,123.2,59.2,123.2,123.2
			C431.183,328,370.383,374.4,319.183,400z"/>
	</g>
</g>
<g>
</g>
<g>
</g>
<g>
</g>
<g>
</g>
<g>
</g>
<g>
</g>
<g>
</g>
<g>
</g>
<g>
</g>
<g>
</g>
<g>
</g>
<g>
</g>
<g>
</g>
<g>
</g>
<g>
</g>
</svg>
