<?xml version="1.0" standalone="no"?>
<!DOCTYPE svg PUBLIC "-//W3C//DTD SVG 20010904//EN"
 "http://www.w3.org/TR/2001/REC-SVG-20010904/DTD/svg10.dtd">
<svg version="1.0" xmlns="http://www.w3.org/2000/svg"
 width="700.000000pt" height="700.000000pt" viewBox="0 0 700.000000 700.000000"
 preserveAspectRatio="xMidYMid meet">
<metadata>
Created by potrace 1.14, written by Peter Selinger 2001-2017
</metadata>
<g transform="translate(0.000000,700.000000) scale(0.100000,-0.100000)"
fill="#000000" stroke="none">
<path d="M2455 6981 c-48 -22 -79 -50 -102 -94 -32 -58 -23 -380 16 -602 42
-243 116 -448 214 -593 16 -24 27 -45 25 -46 -1 -2 -59 -15 -128 -30 -388 -85
-756 -262 -1059 -511 -60 -50 -224 -218 -283 -290 -222 -273 -367 -592 -423
-930 -24 -139 -32 -454 -14 -550 4 -22 9 -58 12 -80 36 -268 178 -624 355
-890 116 -173 197 -271 361 -435 212 -212 403 -359 690 -531 482 -290 777
-523 924 -731 51 -70 113 -196 121 -244 3 -16 8 -40 11 -54 3 -14 7 -65 9
-114 6 -112 31 -165 101 -216 43 -30 58 -35 120 -38 196 -10 364 78 453 238
16 30 33 73 37 95 4 22 9 50 11 63 9 48 58 189 81 237 109 217 308 401 583
540 509 257 953 607 1242 981 268 346 421 709 484 1144 11 69 12 466 3 530 -5
36 -11 76 -13 90 -28 205 -111 440 -229 650 -112 200 -323 442 -506 580 -18
14 -45 35 -59 46 -52 41 -200 133 -298 184 -137 72 -267 126 -414 172 -175 55
-176 55 -267 74 l-81 17 43 86 c72 145 142 346 160 458 3 19 7 38 9 42 2 3 7
33 10 66 4 33 9 69 12 80 10 48 15 111 20 280 6 178 6 181 -19 237 -53 118
-161 136 -399 65 -262 -79 -561 -285 -721 -499 l-35 -47 -53 62 c-72 82 -147
155 -244 236 -213 179 -430 277 -630 286 -73 4 -98 1 -130 -14z m413 -555 c99
-64 240 -197 322 -301 17 -22 36 -47 43 -55 7 -9 27 -37 46 -64 37 -53 37 -45
7 -212 -8 -45 -18 -103 -22 -130 -12 -91 -13 -91 -75 -43 -197 155 -323 388
-379 701 -21 116 -24 148 -14 148 3 0 36 -20 72 -44z m1379 -8 c-25 -226 -115
-465 -232 -617 -74 -97 -297 -273 -324 -257 -23 15 45 317 102 451 59 139 153
271 255 355 50 42 177 120 196 120 4 0 6 -24 3 -52z m-1276 -1166 c66 -50 293
-162 330 -162 7 0 41 -14 77 -31 74 -35 93 -34 242 1 146 36 254 79 398 162
l84 47 36 -18 c38 -19 65 -26 137 -37 281 -41 603 -160 835 -311 174 -113 297
-225 449 -409 32 -39 119 -183 156 -260 79 -161 135 -361 150 -534 7 -80 8
-331 2 -365 -3 -11 -8 -47 -12 -80 -9 -78 -40 -211 -72 -304 -31 -94 -106
-263 -133 -300 -11 -16 -20 -32 -20 -36 0 -7 -109 -172 -137 -206 -208 -257
-399 -429 -693 -624 -165 -110 -174 -115 -405 -237 -436 -232 -669 -465 -810
-810 l-31 -77 -34 62 c-171 313 -538 645 -1076 974 -10 7 -62 38 -114 69 -392
237 -684 507 -890 824 -62 96 -170 307 -170 332 0 8 -4 18 -9 24 -8 8 -46 119
-56 164 -2 8 -9 38 -15 65 -7 28 -14 61 -16 75 -2 14 -8 52 -13 85 -17 107 -7
406 18 522 126 596 554 1049 1191 1263 135 45 274 80 380 95 95 14 145 26 165
40 26 18 28 18 56 -3z"/>
</g>
</svg>
